<svg xmlns="http://www.w3.org/2000/svg" aria-hidden="true" overflow="hidden" style="position:absolute;width:0;height:0">
  <defs>
    <symbol id="icon-facebook" viewBox="0 0 34 32"><path d="M21.917 5.313h2.878V.225C24.298.156 22.591 0 20.602 0c-4.149 0-6.992 2.649-6.992 7.519V12H9.031v5.688h4.579V32h5.614V17.689h4.394l.697-5.688h-5.092V8.082c.001-1.644.437-2.769 2.694-2.769z"/></symbol>
    <symbol id="icon-instagram" viewBox="0 0 32 32"><path d="M31.969 9.408c-.075-1.7-.35-2.869-.744-3.882a7.803 7.803 0 0 0-1.85-2.838A7.867 7.867 0 0 0 26.543.844C25.524.45 24.361.175 22.661.1 20.948.019 20.404 0 16.06 0s-4.888.019-6.595.094c-1.7.075-2.869.35-3.882.744a7.803 7.803 0 0 0-2.838 1.85A7.867 7.867 0 0 0 .901 5.52C.507 6.539.232 7.702.157 9.402c-.081 1.713-.1 2.257-.1 6.601s.019 4.888.094 6.595c.075 1.7.35 2.869.744 3.882a7.895 7.895 0 0 0 1.85 2.838 7.867 7.867 0 0 0 2.832 1.844c1.019.394 2.182.669 3.882.744 1.706.075 2.25.094 6.595.094s4.888-.019 6.595-.094c1.7-.075 2.869-.35 3.882-.744a8.187 8.187 0 0 0 4.682-4.682c.394-1.019.669-2.182.744-3.882.075-1.707.094-2.25.094-6.595s-.006-4.888-.081-6.595zm-2.882 13.065c-.069 1.563-.331 2.407-.55 2.969a5.307 5.307 0 0 1-3.038 3.038c-.563.219-1.413.481-2.969.55-1.688.075-2.194.094-6.464.094s-4.782-.019-6.464-.094c-1.563-.069-2.407-.331-2.969-.55a4.926 4.926 0 0 1-1.838-1.194 4.974 4.974 0 0 1-1.194-1.838c-.219-.563-.481-1.413-.55-2.969-.075-1.688-.094-2.194-.094-6.464s.019-4.782.094-6.464c.069-1.563.331-2.407.55-2.969a4.868 4.868 0 0 1 1.2-1.838A4.974 4.974 0 0 1 6.639 3.55c.563-.219 1.413-.481 2.969-.55 1.688-.075 2.194-.094 6.464-.094 4.276 0 4.782.019 6.464.094 1.563.069 2.407.331 2.969.55a4.914 4.914 0 0 1 1.838 1.194 4.974 4.974 0 0 1 1.194 1.838c.219.563.481 1.413.55 2.969.075 1.688.094 2.194.094 6.464s-.019 4.77-.094 6.458z"/><path d="M16.059 7.783c-4.538 0-8.22 3.682-8.22 8.22s3.682 8.22 8.22 8.22 8.22-3.682 8.22-8.22-3.682-8.22-8.22-8.22zm0 13.553a5.333 5.333 0 0 1 0-10.664 5.333 5.333 0 0 1 0 10.664zM26.524 7.457a1.919 1.919 0 1 1-3.838 0 1.919 1.919 0 0 1 3.838 0z"/></symbol>
    <symbol id="icon-linkedin" viewBox="0 0 32 32"><path d="M28.8 0H3.2A3.21 3.21 0 0 0 0 3.2v25.6C0 30.56 1.44 32 3.2 32h25.6c1.76 0 3.2-1.44 3.2-3.2V3.2C32 1.44 30.56 0 28.8 0zM9.6 27.2H4.8V12.8h4.8v14.4zM7.2 10.08c-1.6 0-2.88-1.28-2.88-2.88S5.6 4.32 7.2 4.32c1.6 0 2.88 1.28 2.88 2.88S8.8 10.08 7.2 10.08zm20 17.12h-4.8v-8.48c0-1.28-1.12-2.4-2.4-2.4s-2.4 1.12-2.4 2.4v8.48h-4.8V12.8h4.8v1.92c.8-1.28 2.56-2.24 4-2.24 3.04 0 5.6 2.56 5.6 5.6v9.12z"/></symbol>
    <symbol id="icon-twitter" viewBox="0 0 32 32"><path d="M32 6.078c-1.19.522-2.458.868-3.78 1.036a6.523 6.523 0 0 0 2.886-3.626 13.11 13.11 0 0 1-4.16 1.588A6.574 6.574 0 0 0 22.154 3c-3.632 0-6.556 2.948-6.556 6.562 0 .52.044 1.02.152 1.496-5.454-.266-10.28-2.88-13.522-6.862a6.605 6.605 0 0 0-.898 3.316 6.57 6.57 0 0 0 2.914 5.452 6.479 6.479 0 0 1-2.964-.808v.072c0 3.188 2.274 5.836 5.256 6.446a6.548 6.548 0 0 1-1.72.216 5.8 5.8 0 0 1-1.242-.112c.85 2.598 3.262 4.508 6.13 4.57a13.182 13.182 0 0 1-8.134 2.798c-.538 0-1.054-.024-1.57-.09A18.469 18.469 0 0 0 10.064 29c12.072 0 18.672-10 18.672-18.668 0-.29-.01-.57-.024-.848A13.087 13.087 0 0 0 32 6.078z"/></symbol>
    <symbol id="icon-uber-logo" viewBox="0 0 32 32"><path fill="#000" style="fill: var(--color1, #000)" d="M0 0h32v32h-32z"></path><path fill="#fff" style="fill: var(--color2, #fff)" d="M9.651 19.85v2.133c0.003 0.354-0.081 0.611-0.25 0.771s-0.437 0.24-0.803 0.24c-0.366 0-0.634-0.080-0.803-0.24s-0.253-0.417-0.25-0.771v-2.224h-0.712c-0.063-0.003-0.094 0.027-0.094 0.090v2.169c0.008 0.588 0.18 1.004 0.516 1.25s0.783 0.364 1.342 0.356c0.559 0.008 1.007-0.111 1.344-0.356s0.51-0.662 0.518-1.25v-2.259h-0.712c-0.063-0.003-0.094 0.028-0.094 0.091zM19.971 20.377c0.029 0 0.051-0.005 0.067-0.016s0.029-0.026 0.039-0.047l0.205-0.512c0.011-0.029 0-0.043-0.031-0.043h-2.865c-0.131 0-0.226 0.021-0.283 0.063s-0.087 0.109-0.087 0.201v3.31c0 0.076 0.022 0.133 0.065 0.169s0.116 0.055 0.218 0.055h2.673c0.029 0 0.051-0.005 0.067-0.016s0.029-0.026 0.039-0.047l0.205-0.508c0.011-0.032 0-0.047-0.031-0.047h-2.44v-0.673c-0.003-0.115 0.033-0.201 0.106-0.256s0.195-0.083 0.366-0.083h1.059c0.029 0 0.051-0.005 0.067-0.016s0.029-0.026 0.039-0.047l0.197-0.488c0.011-0.032 0-0.047-0.032-0.047h-1.803v-0.953h2.161zM14.925 21.554c0.155-0.081 0.267-0.194 0.337-0.338s0.104-0.308 0.104-0.492c-0.013-0.409-0.157-0.676-0.431-0.799s-0.595-0.178-0.962-0.165h-1.618c-0.134 0-0.23 0.021-0.287 0.063s-0.085 0.109-0.083 0.201v3.31c0 0.076 0.022 0.133 0.065 0.169s0.116 0.055 0.218 0.055h1.992c0.383 0.003 0.691-0.078 0.925-0.242s0.354-0.434 0.362-0.809c0-0.231-0.050-0.432-0.152-0.604s-0.258-0.288-0.47-0.348zM12.769 20.361h1.263c0.205 0 0.346 0.040 0.423 0.12s0.115 0.203 0.112 0.368c0.003 0.165-0.035 0.289-0.112 0.37s-0.218 0.122-0.423 0.122h-1.263v-0.98zM14.178 22.955h-1.409v-0.705c-0.003-0.115 0.033-0.201 0.108-0.256s0.197-0.083 0.368-0.083h0.933c0.22 0 0.372 0.043 0.455 0.13s0.121 0.218 0.116 0.394c0.005 0.173-0.033 0.303-0.116 0.39s-0.234 0.13-0.455 0.13zM25.254 23.491l-0.854-1.46c0.218-0.050 0.399-0.158 0.543-0.325s0.219-0.426 0.224-0.777c-0.005-0.451-0.14-0.761-0.405-0.929s-0.636-0.248-1.114-0.24h-1.626c-0.131 0-0.226 0.021-0.283 0.063s-0.087 0.109-0.087 0.201v3.444c0 0.060 0.031 0.090 0.094 0.090h0.693v-1.11c-0.003-0.115 0.033-0.201 0.108-0.256s0.197-0.083 0.368-0.083h0.705l0.767 1.386c0.011 0.021 0.024 0.037 0.039 0.047s0.038 0.016 0.067 0.016h0.724c0.024-0.003 0.037-0.011 0.041-0.026 0.001-0.004 0.002-0.009 0.002-0.014 0-0.010-0.003-0.019-0.008-0.027l0 0zM23.766 21.519h-1.326v-1.149h1.326c0.241 0 0.403 0.048 0.486 0.144s0.121 0.239 0.116 0.431c0.005 0.194-0.033 0.338-0.116 0.433s-0.245 0.142-0.486 0.142zM15.995 8.403c-2.031 0-3.694 1.577-3.831 3.573h2.753v-0.72c0-0.050 0.041-0.091 0.091-0.091v0h1.973c0.050 0 0.091 0.041 0.091 0.091v0 1.973c-0 0.050-0.041 0.091-0.091 0.091h-1.973c-0.050-0-0.091-0.041-0.091-0.091v0-0.72h-2.753c0.137 1.996 1.8 3.573 3.831 3.573 2.121 0 3.84-1.719 3.84-3.84s-1.719-3.84-3.84-3.84z"></path></symbol>
    <symbol id="icon-btn" viewBox="0 0 83 32"><path d="M0 0h83.2v6.4h-83.2zM0 12.8h83.2v6.4h-83.2zM0 25.6h83.2v6.4h-83.2z"></path></symbol>
  </defs>
</svg>
